<?xml version="1.0" encoding="UTF-8"?>
<svg version="1.1" xmlns="http://www.w3.org/2000/svg" width="227" height="228">
<path d="M0 0 C1.29912323 -0.00029205 2.59824646 -0.00058411 3.93673706 -0.00088501 C7.45450745 -0.00145228 10.97213781 0.01019898 14.48987603 0.02426291 C18.1827116 0.0368762 21.87555136 0.03794903 25.56840515 0.04031372 C32.5414067 0.04649766 39.51434455 0.0628661 46.48731822 0.0830127 C54.43425513 0.10546853 62.3811953 0.11638933 70.32815611 0.12640357 C86.65720304 0.14723554 102.98618613 0.18235061 119.31518555 0.22705078 C119.64518555 0.88705078 119.97518555 1.54705078 120.31518555 2.22705078 C115.27883973 8.13818863 109.9905181 13.73445862 104.50268555 19.22705078 C103.74020508 20.00177734 102.97772461 20.77650391 102.19213867 21.57470703 C101.46317383 22.30560547 100.73420898 23.03650391 99.9831543 23.78955078 C99.32597412 24.45083984 98.66879395 25.11212891 97.99169922 25.79345703 C96.31518555 27.22705078 96.31518555 27.22705078 94.31518555 27.22705078 C94.06897461 27.7985083 93.82276367 28.36996582 93.5690918 28.95874023 C92.10720303 31.60329018 90.39489969 33.38984826 88.25268555 35.52001953 C87.45604492 36.31472656 86.6594043 37.10943359 85.83862305 37.92822266 C84.58952148 39.15895508 84.58952148 39.15895508 83.31518555 40.41455078 C82.48245117 41.24664062 81.6497168 42.07873047 80.79174805 42.93603516 C73.48728584 50.18730953 73.48728584 50.18730953 69.36387634 50.32711792 C68.09862625 50.31584869 66.83337616 50.30457947 65.52978516 50.29296875 C64.83193909 50.2882959 64.13409302 50.28362305 63.4151001 50.27880859 C61.89655455 50.26829358 60.37802275 50.25562683 58.85951042 50.24108505 C56.44992204 50.21907747 54.04041226 50.20498647 51.63075256 50.19338989 C44.77813944 50.15979668 37.92565471 50.11847973 31.07324219 50.05566406 C26.88232823 50.0178165 22.69154993 49.99492915 18.50049019 49.98135757 C16.90859778 49.97334556 15.3167226 49.95979714 13.7249279 49.94042587 C1.71046219 49.73849614 1.71046219 49.73849614 -9.68481445 53.22705078 C-10.37990616 53.50773407 -11.07499786 53.78841736 -11.79115295 54.0776062 C-16.1048373 56.69599449 -17.53860133 63.55239323 -18.68481445 68.22705078 C-19.09671046 71.96865758 -19.12255605 75.67646335 -19.1171875 79.43823242 C-19.12737915 80.52219299 -19.1375708 81.60615356 -19.14807129 82.72296143 C-19.17807579 86.2777634 -19.18744825 89.83229534 -19.1965332 93.38720703 C-19.21338914 95.86300035 -19.23154061 98.33878517 -19.25093079 100.81455994 C-19.29833722 107.30981792 -19.32820728 113.80504138 -19.35437012 120.30041504 C-19.38422276 126.93684048 -19.43073693 133.57313477 -19.47583008 140.20947266 C-19.56175684 153.21526731 -19.62971587 166.22109084 -19.68481445 179.22705078 C-5.48060581 179.18982115 8.72334751 179.12960687 22.92734528 179.04314804 C29.52310673 179.00366701 36.11873455 178.97148134 42.71459961 178.95605469 C49.08195903 178.94089262 55.44895106 178.90645401 61.81614685 178.85874176 C64.24332991 178.84392351 66.67056543 178.83600952 69.09779358 178.83516693 C72.50203457 178.83279699 75.90526052 178.80571284 79.30932617 178.77294922 C80.3091452 178.77797958 81.30896423 178.78300995 82.33908081 178.78819275 C90.02895719 178.67395719 95.1383079 176.7685529 101.12768555 171.97705078 C107.12401638 164.4388063 106.72055158 156.5479779 106.6081543 147.32080078 C106.60254872 145.98702474 106.59828317 144.65324247 106.59529114 143.31945801 C106.58391782 139.83413188 106.55451723 136.34918966 106.5211792 132.86401367 C106.49031465 129.29757885 106.47675105 125.73108109 106.46166992 122.16455078 C106.42963882 115.18522789 106.37853534 108.20615784 106.31518555 101.22705078 C105.56833496 101.984375 104.82148438 102.74169922 104.05200195 103.52197266 C101.28768382 106.32240909 98.51681879 109.1162882 95.74389648 111.90820312 C94.54319659 113.11897927 93.34429535 114.33154179 92.1472168 115.54589844 C90.42922807 117.28806416 88.70493679 119.02376622 86.97924805 120.75830078 C86.44272614 121.30514526 85.90620422 121.85198975 85.35342407 122.41540527 C84.04476267 123.72446176 82.68421929 124.98126984 81.31518555 126.22705078 C80.65518555 126.22705078 79.99518555 126.22705078 79.31518555 126.22705078 C79.05737305 126.81099609 78.79956055 127.39494141 78.53393555 127.99658203 C77.21820191 130.40454327 75.77359962 132.00177771 73.81518555 133.91455078 C73.20674805 134.51654297 72.59831055 135.11853516 71.97143555 135.73876953 C69.17461167 138.25195325 67.34727168 138.35017143 63.68188477 138.34057617 C62.72103973 138.34050064 61.7601947 138.34042511 60.77023315 138.34034729 C59.73061432 138.335186 58.69099548 138.33002472 57.61987305 138.32470703 C56.55729279 138.32329208 55.49471252 138.32187714 54.39993286 138.32041931 C50.99665546 138.31480912 47.59344316 138.30225487 44.19018555 138.28955078 C41.88680108 138.2845371 39.58341558 138.27997396 37.2800293 138.27587891 C31.62505906 138.26483638 25.97012695 138.2480883 20.31518555 138.22705078 C19.98518555 137.23705078 19.65518555 136.24705078 19.31518555 135.22705078 C20.3972168 133.53564453 20.3972168 133.53564453 22.12768555 131.66455078 C23.08674805 130.62621094 23.08674805 130.62621094 24.06518555 129.56689453 C24.80768555 128.79474609 25.55018555 128.02259766 26.31518555 127.22705078 C27.18143555 126.32083984 28.04768555 125.41462891 28.94018555 124.48095703 C34.02715639 119.26829068 34.02715639 119.26829068 36.31518555 117.22705078 C36.97518555 117.22705078 37.63518555 117.22705078 38.31518555 117.22705078 C38.71833984 116.33711426 38.71833984 116.33711426 39.12963867 115.42919922 C40.31809287 113.22165045 41.52260944 111.76162197 43.28393555 109.99267578 C44.14051758 109.13222656 44.14051758 109.13222656 45.0144043 108.25439453 C45.60866211 107.66787109 46.20291992 107.08134766 46.81518555 106.47705078 C47.40944336 105.87505859 48.00370117 105.27306641 48.6159668 104.65283203 C49.18702148 104.08435547 49.75807617 103.51587891 50.34643555 102.93017578 C50.86786133 102.41100586 51.38928711 101.89183594 51.92651367 101.35693359 C53.31518555 100.22705078 53.31518555 100.22705078 55.31518555 100.22705078 C55.81018555 98.74205078 55.81018555 98.74205078 56.31518555 97.22705078 C56.97518555 97.22705078 57.63518555 97.22705078 58.31518555 97.22705078 C58.53174805 96.68564453 58.74831055 96.14423828 58.97143555 95.58642578 C60.78018552 92.41059735 63.23242354 90.01976997 65.81518555 87.47705078 C66.31405273 86.97044922 66.81291992 86.46384766 67.3269043 85.94189453 C71.06177416 82.22705078 71.06177416 82.22705078 73.31518555 82.22705078 C73.64518555 81.23705078 73.97518555 80.24705078 74.31518555 79.22705078 C74.97518555 79.22705078 75.63518555 79.22705078 76.31518555 79.22705078 C76.71833984 78.33711426 76.71833984 78.33711426 77.12963867 77.42919922 C78.31809287 75.22165045 79.52260944 73.76162197 81.28393555 71.99267578 C81.85499023 71.41904297 82.42604492 70.84541016 83.0144043 70.25439453 C83.60866211 69.66787109 84.20291992 69.08134766 84.81518555 68.47705078 C85.40944336 67.87505859 86.00370117 67.27306641 86.6159668 66.65283203 C87.18702148 66.08435547 87.75807617 65.51587891 88.34643555 64.93017578 C88.86786133 64.41100586 89.38928711 63.89183594 89.92651367 63.35693359 C91.31518555 62.22705078 91.31518555 62.22705078 93.31518555 62.22705078 C93.64518555 61.23705078 93.97518555 60.24705078 94.31518555 59.22705078 C94.97518555 59.22705078 95.63518555 59.22705078 96.31518555 59.22705078 C96.53174805 58.68564453 96.74831055 58.14423828 96.97143555 57.58642578 C98.78018552 54.41059735 101.23242354 52.01976997 103.81518555 49.47705078 C104.31405273 48.97044922 104.81291992 48.46384766 105.3269043 47.94189453 C109.06177416 44.22705078 109.06177416 44.22705078 111.31518555 44.22705078 C111.58331055 43.58767578 111.85143555 42.94830078 112.12768555 42.28955078 C113.31518555 40.22705078 113.31518555 40.22705078 116.31518555 39.22705078 C116.71737305 38.39173828 116.71737305 38.39173828 117.12768555 37.53955078 C118.84802854 34.18940916 121.40093843 31.60279572 124.31518555 29.22705078 C124.97518555 29.22705078 125.63518555 29.22705078 126.31518555 29.22705078 C126.31518555 28.56705078 126.31518555 27.90705078 126.31518555 27.22705078 C126.97518555 27.22705078 127.63518555 27.22705078 128.31518555 27.22705078 C128.53174805 26.68564453 128.74831055 26.14423828 128.97143555 25.58642578 C130.78018552 22.41059735 133.23242354 20.01976997 135.81518555 17.47705078 C136.56348633 16.71714844 136.56348633 16.71714844 137.3269043 15.94189453 C141.06177416 12.22705078 141.06177416 12.22705078 143.31518555 12.22705078 C143.64518555 11.23705078 143.97518555 10.24705078 144.31518555 9.22705078 C144.97518555 9.22705078 145.63518555 9.22705078 146.31518555 9.22705078 C146.52143555 8.67017578 146.72768555 8.11330078 146.94018555 7.53955078 C148.86519329 4.30203776 151.35369457 2.54473937 154.31518555 0.22705078 C155.30518555 0.72205078 155.30518555 0.72205078 156.31518555 1.22705078 C156.4322841 24.02859003 156.52030323 46.83007929 156.57424641 69.63185883 C156.59996529 80.22049547 156.63499436 90.80894466 156.69238281 101.39746094 C156.74241189 110.63257592 156.77452239 119.86755506 156.78562802 129.1028018 C156.79211391 133.98726959 156.80722412 138.87134894 156.84383583 143.75569153 C156.87810444 148.36536124 156.88817711 152.97448737 156.88072395 157.58427238 C156.88208486 159.26431687 156.89183181 160.94438202 156.91121292 162.62431526 C157.06155778 176.34420174 154.74242347 187.95723055 148.31518555 200.22705078 C147.65518555 200.22705078 146.99518555 200.22705078 146.31518555 200.22705078 C146.31518555 201.21705078 146.31518555 202.20705078 146.31518555 203.22705078 C145.65518555 203.22705078 144.99518555 203.22705078 144.31518555 203.22705078 C144.09475586 203.94376953 143.87432617 204.66048828 143.6472168 205.39892578 C141.98648363 208.92493989 139.8881002 210.86885459 137.00268555 213.47705078 C136.05780273 214.34845703 135.11291992 215.21986328 134.1394043 216.11767578 C131.3513298 218.20005507 129.72992318 218.90361479 126.31518555 219.22705078 C126.31518555 219.88705078 126.31518555 220.54705078 126.31518555 221.22705078 C124.44373859 222.04770147 122.56784219 222.85820918 120.69018555 223.66455078 C119.12397461 224.34324219 119.12397461 224.34324219 117.52612305 225.03564453 C111.98228014 227.09266653 106.75447682 227.35147581 100.87405396 227.3473053 C99.78218098 227.34858694 99.78218098 227.34858694 98.66824996 227.34989446 C96.24080333 227.35153531 93.81342654 227.34605084 91.38598633 227.34057617 C89.64128114 227.34029397 87.89657584 227.34045267 86.15187073 227.34101868 C81.42302757 227.34130537 76.69420982 227.33542923 71.96537256 227.32844472 C67.02060735 227.32218997 62.07584155 227.3216057 57.131073 227.32041931 C47.77082705 227.31731226 38.41059278 227.30910729 29.05035198 227.29906982 C18.39261793 227.28788927 7.73488332 227.28239334 -2.92285514 227.27737439 C-24.84351477 227.26692417 -46.76416387 227.24933682 -68.68481445 227.22705078 C-68.77841969 204.5040604 -68.84887287 181.78110199 -68.89206314 159.05795765 C-68.91265369 148.50626477 -68.94070703 137.95469196 -68.98657227 127.40307617 C-69.02654762 118.20205037 -69.05227273 109.00111156 -69.06116843 99.80000132 C-69.0663651 94.93189924 -69.07850554 90.06404597 -69.10773468 85.19602394 C-69.13507312 80.60529238 -69.14322255 76.01490993 -69.13724518 71.42410469 C-69.13833723 69.74764859 -69.14618066 68.07117967 -69.16163635 66.39479446 C-69.28090622 52.77977275 -66.68153494 41.5713637 -60.68481445 29.22705078 C-60.02481445 29.22705078 -59.36481445 29.22705078 -58.68481445 29.22705078 C-58.68481445 28.23705078 -58.68481445 27.24705078 -58.68481445 26.22705078 C-58.02481445 26.22705078 -57.36481445 26.22705078 -56.68481445 26.22705078 C-56.02481445 24.57705078 -55.36481445 22.92705078 -54.68481445 21.22705078 C-54.02481445 21.22705078 -53.36481445 21.22705078 -52.68481445 21.22705078 C-52.41926758 20.63408203 -52.1537207 20.04111328 -51.88012695 19.43017578 C-48.31910773 12.86672858 -41.40682909 9.25957851 -34.99731445 5.91455078 C-34.37518066 5.57713867 -33.75304688 5.23972656 -33.11206055 4.89208984 C-22.91953343 -0.18492316 -11.14514827 -0.06695557 0 0 Z " fill="#EBEBEB" transform="translate(68.684814453125,0.77294921875)"/>
<path d="M0 0 C0.99 0.495 0.99 0.495 2 1 C2.11709855 23.80153925 2.20511768 46.6030285 2.25906086 69.40480804 C2.28477975 79.99344469 2.31980882 90.58189388 2.37719727 101.17041016 C2.42722634 110.40552514 2.45933684 119.64050427 2.47044247 128.87575102 C2.47692836 133.76021881 2.49203858 138.64429816 2.52865028 143.52864075 C2.56291889 148.13831046 2.57299157 152.74743659 2.56553841 157.3572216 C2.56689931 159.03726608 2.57664627 160.71733124 2.59602737 162.39726448 C2.74637223 176.11715096 0.42723792 187.73017977 -6 200 C-6.66 200 -7.32 200 -8 200 C-8 200.99 -8 201.98 -8 203 C-8.66 203 -9.32 203 -10 203 C-10.22042969 203.71671875 -10.44085938 204.4334375 -10.66796875 205.171875 C-12.32870191 208.6978891 -14.42708535 210.64180381 -17.3125 213.25 C-18.25738281 214.12140625 -19.20226562 214.9928125 -20.17578125 215.890625 C-22.96385575 217.97300429 -24.58526236 218.67656401 -28 219 C-28 219.66 -28 220.32 -28 221 C-29.87144695 221.82065069 -31.74734336 222.6311584 -33.625 223.4375 C-35.19121094 224.11619141 -35.19121094 224.11619141 -36.7890625 224.80859375 C-42.3329054 226.86561575 -47.56070873 227.12442503 -53.44113159 227.12025452 C-54.53300457 227.12153615 -54.53300457 227.12153615 -55.64693558 227.12284368 C-58.07438221 227.12448452 -60.501759 227.11900006 -62.92919922 227.11352539 C-64.6739044 227.11324319 -66.4186097 227.11340189 -68.16331482 227.1139679 C-72.89215798 227.11425459 -77.62097573 227.10837845 -82.34981298 227.10139394 C-87.29457819 227.09513919 -92.23934399 227.09455492 -97.18411255 227.09336853 C-106.5443585 227.09026148 -115.90459276 227.08205651 -125.26483357 227.07201904 C-135.92256762 227.06083849 -146.58030223 227.05534256 -157.23804069 227.05032361 C-179.15870031 227.03987338 -201.07934942 227.02228604 -223 227 C-223.07014733 204.22517956 -223.12301624 181.45037699 -223.15543652 158.67547035 C-223.17089135 148.10017913 -223.19195442 137.52495511 -223.22631836 126.94970703 C-223.25626307 117.73003257 -223.27558506 108.5104068 -223.28226548 99.29068506 C-223.28616914 94.41098971 -223.29531446 89.53143362 -223.31719017 84.65178299 C-223.33763546 80.05371402 -223.3438176 75.45584097 -223.33932304 70.85773087 C-223.34014466 69.17518548 -223.34606222 67.49263317 -223.35761642 65.81012726 C-223.41411307 57.15460962 -223.32736275 49.15781186 -220 41 C-219 44 -219 44 -220 47 C-220.1044475 49.38372768 -220.14653056 51.77030954 -220.15821838 54.15629578 C-220.16315636 54.88981492 -220.16809434 55.62333407 -220.17318195 56.37908107 C-220.18857233 58.84345734 -220.19692173 61.30780752 -220.20532227 63.7722168 C-220.21489958 65.53618602 -220.22490957 67.30015294 -220.23532104 69.06411743 C-220.26239206 73.85922669 -220.28338974 78.65434582 -220.30332303 83.44948936 C-220.32516903 88.45835407 -220.35256449 93.46718831 -220.37937927 98.47602844 C-220.42932492 107.96384951 -220.47425681 117.45168748 -220.51740164 126.93954164 C-220.56675801 137.73990951 -220.62168207 148.54024681 -220.67708123 159.34058511 C-220.79093002 181.56036159 -220.89776275 203.78016726 -221 226 C-202.00618947 225.93938389 -183.01251943 225.86182646 -164.01886177 225.76428509 C-155.19911013 225.7193834 -146.37939837 225.67995584 -137.55957031 225.65356445 C-129.86921419 225.63053871 -122.17898484 225.59708979 -114.48872936 225.55129844 C-110.41950107 225.52742774 -106.35039785 225.50865876 -102.28110123 225.50238609 C-98.44461765 225.49630723 -94.60845384 225.47620733 -90.772089 225.44572449 C-89.37016209 225.43698888 -87.96819331 225.43321232 -86.56624031 225.43499184 C-76.66414948 225.44358608 -68.08471026 225.08840752 -60 219 C-59.34 219 -58.68 219 -58 219 C-57.72929687 218.41089844 -57.45859375 217.82179687 -57.1796875 217.21484375 C-56.01690272 215.03173458 -54.73188035 213.4316432 -53.125 211.5625 C-48.90485119 206.01512994 -46.04321142 198.84832122 -45.98046875 191.80859375 C-46.15847505 190.57286886 -46.37674016 189.34220529 -46.63671875 188.12109375 C-47.43027473 183.48775076 -47.07031648 178.68776503 -47 174 C-47.99 174.66 -48.98 175.32 -50 176 C-50.639375 175.814375 -51.27875 175.62875 -51.9375 175.4375 C-52.9584375 175.2209375 -52.9584375 175.2209375 -54 175 C-55.34789347 175.98028616 -56.68212715 176.97971135 -58 178 C-58.99 177.67 -59.98 177.34 -61 177 C-60.46890625 176.72027344 -59.9378125 176.44054687 -59.390625 176.15234375 C-53.52759026 172.82496454 -50.51447373 169.72432222 -48.40943909 163.15777588 C-47.88947167 160.4175071 -47.88061334 157.82805008 -47.88647461 155.03808594 C-47.88655014 153.83714294 -47.88662567 152.63619995 -47.88670349 151.39886475 C-47.89186478 150.10708313 -47.89702606 148.81530151 -47.90234375 147.484375 C-47.90420983 146.14487765 -47.90563284 144.80537962 -47.90663147 143.46588135 C-47.91044165 139.94777528 -47.92025909 136.42971079 -47.93133545 132.91162109 C-47.94158183 129.31869061 -47.946136 125.72575339 -47.95117188 122.1328125 C-47.96188275 115.08852471 -47.97894113 108.04426507 -48 101 C-48.74685059 101.75732422 -49.49370117 102.51464844 -50.26318359 103.29492188 C-53.02750172 106.09535831 -55.79836676 108.88923742 -58.57128906 111.68115234 C-59.77198895 112.89192849 -60.9708902 114.10449101 -62.16796875 115.31884766 C-63.88595748 117.06101338 -65.61024875 118.79671544 -67.3359375 120.53125 C-67.87245941 121.07809448 -68.40898132 121.62493896 -68.96176147 122.18835449 C-70.27042287 123.49741098 -71.63096626 124.75421906 -73 126 C-73.66 126 -74.32 126 -75 126 C-75.2578125 126.58394531 -75.515625 127.16789062 -75.78125 127.76953125 C-77.09698364 130.17749249 -78.54158592 131.77472693 -80.5 133.6875 C-81.1084375 134.28949219 -81.716875 134.89148438 -82.34375 135.51171875 C-85.14057388 138.02490247 -86.96791387 138.12312064 -90.63330078 138.11352539 C-91.59414581 138.11344986 -92.55499084 138.11337433 -93.54495239 138.11329651 C-94.58457123 138.10813522 -95.62419006 138.10297394 -96.6953125 138.09765625 C-97.75789276 138.0962413 -98.82047302 138.09482635 -99.91525269 138.09336853 C-103.31853009 138.08775834 -106.72174238 138.07520409 -110.125 138.0625 C-112.42838447 138.05748631 -114.73176997 138.05292318 -117.03515625 138.04882812 C-122.69012649 138.0377856 -128.34505859 138.02103752 -134 138 C-134.33 137.01 -134.66 136.02 -135 135 C-133.91796875 133.30859375 -133.91796875 133.30859375 -132.1875 131.4375 C-131.2284375 130.39916016 -131.2284375 130.39916016 -130.25 129.33984375 C-129.5075 128.56769531 -128.765 127.79554688 -128 127 C-127.13375 126.09378906 -126.2675 125.18757813 -125.375 124.25390625 C-120.28802915 119.0412399 -120.28802915 119.0412399 -118 117 C-117.34 117 -116.68 117 -116 117 C-115.5968457 116.11006348 -115.5968457 116.11006348 -115.18554688 115.20214844 C-113.99709268 112.99459967 -112.79257611 111.53457118 -111.03125 109.765625 C-110.17466797 108.90517578 -110.17466797 108.90517578 -109.30078125 108.02734375 C-108.70652344 107.44082031 -108.11226563 106.85429688 -107.5 106.25 C-106.90574219 105.64800781 -106.31148438 105.04601562 -105.69921875 104.42578125 C-105.12816406 103.85730469 -104.55710937 103.28882812 -103.96875 102.703125 C-103.44732422 102.18395508 -102.92589844 101.66478516 -102.38867188 101.12988281 C-101 100 -101 100 -99 100 C-98.505 98.515 -98.505 98.515 -98 97 C-97.34 97 -96.68 97 -96 97 C-95.7834375 96.45859375 -95.566875 95.9171875 -95.34375 95.359375 C-93.53500003 92.18354656 -91.08276201 89.79271919 -88.5 87.25 C-88.00113281 86.74339844 -87.50226563 86.23679687 -86.98828125 85.71484375 C-83.25341139 82 -83.25341139 82 -81 82 C-80.67 81.01 -80.34 80.02 -80 79 C-79.34 79 -78.68 79 -78 79 C-77.5968457 78.11006348 -77.5968457 78.11006348 -77.18554688 77.20214844 C-75.99709268 74.99459967 -74.79257611 73.53457118 -73.03125 71.765625 C-72.46019531 71.19199219 -71.88914063 70.61835937 -71.30078125 70.02734375 C-70.70652344 69.44082031 -70.11226562 68.85429688 -69.5 68.25 C-68.90574219 67.64800781 -68.31148437 67.04601562 -67.69921875 66.42578125 C-67.12816406 65.85730469 -66.55710938 65.28882812 -65.96875 64.703125 C-65.44732422 64.18395508 -64.92589844 63.66478516 -64.38867188 63.12988281 C-63 62 -63 62 -61 62 C-60.67 61.01 -60.34 60.02 -60 59 C-59.34 59 -58.68 59 -58 59 C-57.7834375 58.45859375 -57.566875 57.9171875 -57.34375 57.359375 C-55.53500003 54.18354656 -53.08276201 51.79271919 -50.5 49.25 C-50.00113281 48.74339844 -49.50226563 48.23679688 -48.98828125 47.71484375 C-45.25341139 44 -45.25341139 44 -43 44 C-42.731875 43.360625 -42.46375 42.72125 -42.1875 42.0625 C-41 40 -41 40 -38 39 C-37.5978125 38.1646875 -37.5978125 38.1646875 -37.1875 37.3125 C-35.467157 33.96235837 -32.91424712 31.37574493 -30 29 C-29.34 29 -28.68 29 -28 29 C-28 28.34 -28 27.68 -28 27 C-27.34 27 -26.68 27 -26 27 C-25.7834375 26.45859375 -25.566875 25.9171875 -25.34375 25.359375 C-23.53500003 22.18354656 -21.08276201 19.79271919 -18.5 17.25 C-17.75169922 16.49009766 -17.75169922 16.49009766 -16.98828125 15.71484375 C-13.25341139 12 -13.25341139 12 -11 12 C-10.67 11.01 -10.34 10.02 -10 9 C-9.34 9 -8.68 9 -8 9 C-7.79375 8.443125 -7.5875 7.88625 -7.375 7.3125 C-5.44999226 4.07498698 -2.96149098 2.31768859 0 0 Z " fill="#DFDFDF" transform="translate(223,1)"/>
<path d="M0 0 C1.94737061 -0.00021904 1.94737061 -0.00021904 3.93408203 -0.0004425 C7.47695696 -0.0007283 11.01979773 0.00513319 14.56266475 0.01213145 C18.27155682 0.01840127 21.98044976 0.01897166 25.68934631 0.02015686 C32.70502383 0.0232595 39.72068568 0.03145846 46.73635632 0.04150635 C54.72669093 0.05270068 62.71702631 0.0581863 70.70736682 0.06320179 C87.137033 0.073642 103.56668344 0.09122071 119.99633789 0.11352539 C120.32633789 0.77352539 120.65633789 1.43352539 120.99633789 2.11352539 C115.95999207 8.02466324 110.67167044 13.62093323 105.18383789 19.11352539 C104.42135742 19.88825195 103.65887695 20.66297852 102.87329102 21.46118164 C102.14432617 22.19208008 101.41536133 22.92297852 100.66430664 23.67602539 C100.00712646 24.33731445 99.34994629 24.99860352 98.67285156 25.67993164 C96.99633789 27.11352539 96.99633789 27.11352539 94.99633789 27.11352539 C94.75012695 27.68498291 94.50391602 28.25644043 94.25024414 28.84521484 C92.78835538 31.48976479 91.07605204 33.27632287 88.93383789 35.40649414 C88.13719727 36.20120117 87.34055664 36.9959082 86.51977539 37.81469727 C85.27067383 39.04542969 85.27067383 39.04542969 83.99633789 40.30102539 C83.16360352 41.13311523 82.33086914 41.96520508 81.47290039 42.82250977 C74.16843819 50.07378414 74.16843819 50.07378414 70.04502869 50.21359253 C68.77977859 50.2023233 67.5145285 50.19105408 66.2109375 50.17944336 C65.51309143 50.17477051 64.81524536 50.17009766 64.09625244 50.1652832 C62.57770689 50.15476819 61.05917509 50.14210144 59.54066277 50.12755966 C57.13107438 50.10555208 54.7215646 50.09146108 52.31190491 50.0798645 C45.45929179 50.04627129 38.60680706 50.00495434 31.75439453 49.94213867 C27.56348057 49.9042911 23.37270228 49.88140375 19.18164253 49.86783218 C17.58975013 49.85982017 15.99787495 49.84627175 14.40608025 49.82690048 C2.39161453 49.62497075 2.39161453 49.62497075 -9.00366211 53.11352539 C-9.69875381 53.39420868 -10.39384552 53.67489197 -11.11000061 53.96408081 C-15.42368495 56.5824691 -16.85744899 63.43886784 -18.00366211 68.11352539 C-18.41556207 71.85516811 -18.44135939 75.56290469 -18.43603516 79.32470703 C-18.45144584 80.97671317 -18.45144584 80.97671317 -18.46716785 82.66209316 C-18.49687002 86.19934639 -18.50656885 89.73632135 -18.51538086 93.27368164 C-18.53085938 95.46863768 -18.54765846 97.66358482 -18.5657959 99.85852051 C-18.62356589 107.96425732 -18.65584019 116.07015967 -18.69116211 124.17602539 C-18.79428711 142.30540039 -18.89741211 160.43477539 -19.00366211 179.11352539 C17.29633789 179.11352539 53.59633789 179.11352539 90.99633789 179.11352539 C90.99633789 179.44352539 90.99633789 179.77352539 90.99633789 180.11352539 C54.36633789 180.11352539 17.73633789 180.11352539 -20.00366211 180.11352539 C-20.12863627 165.61875394 -20.25360974 151.12398415 -20.37650108 136.62919521 C-20.44253702 128.8424725 -20.50887299 121.05575277 -20.57641602 113.26904297 C-20.62996141 107.09593283 -20.68272792 100.92281657 -20.73462915 94.74969238 C-20.76203367 91.49321909 -20.78989683 88.23675086 -20.81846619 84.98028755 C-20.8809983 77.83783382 -20.93540845 70.69540742 -20.97930908 63.55281448 C-21.00417366 60.04128045 -21.04027943 56.52995832 -21.07641602 53.01852417 C-21.09236343 50.76625908 -21.10784576 48.51399064 -21.12280273 46.26171875 C-21.14277691 44.72738992 -21.14277691 44.72738992 -21.1631546 43.16206455 C-21.21191952 32.28235877 -18.37888036 23.98068563 -12.00366211 15.11352539 C-11.44678711 14.24727539 -10.88991211 13.38102539 -10.31616211 12.48852539 C-5.82761083 7.87866191 -0.22364853 4.668522 5.99633789 3.11352539 C-6.87366211 2.61852539 -6.87366211 2.61852539 -20.00366211 2.11352539 C-20.00366211 1.78352539 -20.00366211 1.45352539 -20.00366211 1.11352539 C-13.34232057 -0.10831125 -6.75662016 -0.01993622 0 0 Z " fill="#E2E2E2" transform="translate(68.003662109375,0.886474609375)"/>
<path d="M0 0 C1.94737061 -0.00021904 1.94737061 -0.00021904 3.93408203 -0.0004425 C7.47695696 -0.0007283 11.01979773 0.00513319 14.56266475 0.01213145 C18.27155682 0.01840127 21.98044976 0.01897166 25.68934631 0.02015686 C32.70502383 0.0232595 39.72068568 0.03145846 46.73635632 0.04150635 C54.72669093 0.05270068 62.71702631 0.0581863 70.70736682 0.06320179 C87.137033 0.073642 103.56668344 0.09122071 119.99633789 0.11352539 C120.32633789 0.77352539 120.65633789 1.43352539 120.99633789 2.11352539 C115.94735822 8.06088921 110.60453619 13.62960437 105.05883789 19.11352539 C103.88998047 20.27561523 103.88998047 20.27561523 102.69750977 21.46118164 C100.79941369 23.34763296 98.8990064 25.23168784 96.99633789 27.11352539 C96.33633789 26.78352539 95.67633789 26.45352539 94.99633789 26.11352539 C95.65754639 25.45755371 96.31875488 24.80158203 97 24.12573242 C99.44894642 21.69381503 101.89563542 19.25967174 104.34082031 16.82397461 C105.40014263 15.76968509 106.46036018 14.7162943 107.52148438 13.66381836 C109.0454075 12.15200682 110.56609573 10.63700637 112.08618164 9.12133789 C113.00262451 8.21013184 113.91906738 7.29892578 114.86328125 6.36010742 C117.02203925 4.30507172 117.02203925 4.30507172 117.99633789 2.11352539 C72.45633789 2.11352539 26.91633789 2.11352539 -20.00366211 2.11352539 C-20.00366211 1.78352539 -20.00366211 1.45352539 -20.00366211 1.11352539 C-13.34232057 -0.10831125 -6.75662016 -0.01993622 0 0 Z " fill="#545454" transform="translate(68.003662109375,0.886474609375)"/>
<path d="M0 0 C0 3 0 3 -1.4375 5.375 C-3.81984205 9.37733464 -4.12180314 13.22173919 -4.15821838 17.81526184 C-4.1680072 18.75610626 -4.17779602 19.69695068 -4.18788147 20.66630554 C-4.19363693 21.68626114 -4.1993924 22.70621674 -4.20532227 23.75708008 C-4.21522186 24.84045654 -4.22512146 25.92383301 -4.23532104 27.04003906 C-4.26687692 30.61651432 -4.2916702 34.19300286 -4.31640625 37.76953125 C-4.33698087 40.251036 -4.35797748 42.73253728 -4.37937927 45.21403503 C-4.43454739 51.74223015 -4.48397992 58.27045661 -4.53222656 64.79870605 C-4.5907098 72.63319458 -4.65751605 80.46761895 -4.72252655 88.30205536 C-4.82046989 100.20133525 -4.90937136 112.10065202 -5 124 C31.3 124 67.6 124 105 124 C105 124.33 105 124.66 105 125 C68.37 125 31.74 125 -6 125 C-6 85.07 -6 45.14 -6 4 C-5.34 4 -4.68 4 -4 4 C-4 3.34 -4 2.68 -4 2 C-2.68 1.34 -1.36 0.68 0 0 Z " fill="#1D1D1D" transform="translate(54,56)"/>
<path d="M0 0 C0.33 0 0.66 0 1 0 C1.09260637 9.85727636 1.16371727 19.71444955 1.20724869 29.57207203 C1.22813977 34.14919695 1.25648485 38.72602467 1.30175781 43.30297852 C1.3451618 47.71852738 1.36912565 52.13379006 1.37950897 56.54953575 C1.38691019 58.23570958 1.40136289 59.92186743 1.42292023 61.60791969 C1.45188286 63.96658012 1.45595916 66.32405222 1.45410156 68.68286133 C1.47567322 69.73266678 1.47567322 69.73266678 1.49768066 70.80368042 C1.4700086 74.04260407 1.38121691 75.60172092 -0.90338135 77.98857117 C-3.50100885 79.24169145 -4.29396875 78.67650781 -7 78 C-8.34789347 78.98028616 -9.68212715 79.97971135 -11 81 C-11.99 80.67 -12.98 80.34 -14 80 C-13.46890625 79.72027344 -12.9378125 79.44054687 -12.390625 79.15234375 C-6.52717322 75.82472787 -3.5324739 72.73043798 -1.40844727 66.17399597 C-0.87667519 63.34359303 -0.88872051 60.65910592 -0.90234375 57.77856445 C-0.90564697 56.5207869 -0.9089502 55.26300934 -0.91235352 53.96711731 C-0.91647247 53.29826822 -0.92059143 52.62941914 -0.92483521 51.9403019 C-0.93762008 49.84358836 -0.94411923 47.7469382 -0.94897461 45.65019226 C-0.96038641 41.20426629 -0.97964883 36.75839285 -1 32.3125 C-1.02356809 27.15053377 -1.04395306 21.98859681 -1.05593872 16.82658958 C-1.06244317 14.75636738 -1.0749475 12.68623526 -1.08764648 10.61604309 C-1.09094971 9.36772202 -1.09425293 8.11940094 -1.09765625 6.83325195 C-1.10289307 5.72834915 -1.10812988 4.62344635 -1.11352539 3.48506165 C-1 1 -1 1 0 0 Z " fill="#050505" transform="translate(176,98)"/>
<path d="M0 0 C0 3 0 3 -1.4375 5.375 C-4.11494493 9.87310749 -4.13418493 14.29025157 -4.20532227 19.44262695 C-4.22526749 20.72357742 -4.24521271 22.00452789 -4.26576233 23.32429504 C-4.28274278 24.71228924 -4.29962173 26.10028467 -4.31640625 27.48828125 C-4.33699424 28.91603675 -4.35799118 30.34378641 -4.37937927 31.77153015 C-4.43440953 35.51806895 -4.48390227 39.26466101 -4.53222656 43.0112915 C-4.58258121 46.83895574 -4.63819418 50.66654323 -4.69335938 54.49414062 C-4.80070776 61.99602863 -4.90220387 69.49798074 -5 77 C-5.33 77 -5.66 77 -6 77 C-6 52.91 -6 28.82 -6 4 C-5.34 4 -4.68 4 -4 4 C-4 3.34 -4 2.68 -4 2 C-2.68 1.34 -1.36 0.68 0 0 Z " fill="#1A1A1A" transform="translate(54,56)"/>
<path d="M0 0 C0.33 0 0.66 0 1 0 C1.10824843 1.6026782 1.18570645 3.20745748 1.25 4.8125 C1.29640625 5.70582031 1.3428125 6.59914062 1.390625 7.51953125 C1 10 1 10 -0.890625 11.85546875 C-3.52580373 13.28529721 -4.20432895 12.69891776 -7 12 C-8.34789347 12.98028616 -9.68212715 13.97971135 -11 15 C-11.99 14.67 -12.98 14.34 -14 14 C-13.45730469 13.68546875 -12.91460937 13.3709375 -12.35546875 13.046875 C-8.45418176 10.71313215 -5.56108528 8.84162792 -3 5 C-2.34 5 -1.68 5 -1 5 C-0.67 3.35 -0.34 1.7 0 0 Z " fill="#707070" transform="translate(176,164)"/>
<path d="M0 0 C0 3.68390102 -0.81817772 4.1168777 -3 7 C-5.88109742 12.13338389 -8.02326506 17.46514217 -10 23 C-11.86510083 18.14610404 -9.50789797 14.4965313 -7.546875 9.99609375 C-5.49903174 6.02969026 -3.11105082 3.18340084 0 0 Z " fill="#B7B7B7" transform="translate(59,13)"/>
<path d="M0 0 C0.66 0 1.32 0 2 0 C1.8125 1.8125 1.8125 1.8125 1 4 C-0.0828125 4.63421875 -0.0828125 4.63421875 -1.1875 5.28125 C-4.53728535 7.32834105 -7.10510579 9.88612415 -9.8125 12.6875 C-10.31458984 13.19861328 -10.81667969 13.70972656 -11.33398438 14.23632812 C-12.56063509 15.48634362 -13.78097491 16.7425468 -15 18 C-15 15 -15 15 -12.4453125 12.08203125 C-11.34630754 10.98435681 -10.23915907 9.89478953 -9.125 8.8125 C-8.29162109 7.97428711 -8.29162109 7.97428711 -7.44140625 7.11914062 C-3.26694139 3 -3.26694139 3 -1 3 C-0.67 2.01 -0.34 1.02 0 0 Z " fill="#373737" transform="translate(143,80)"/>
<path d="M0 0 C0.66 0.33 1.32 0.66 2 1 C0.97163476 3.71114472 0.29388267 4.82856844 -2.25 6.3125 C-5.42117118 8.25844595 -7.71942394 10.52527525 -10.3125 13.1875 C-11.19550781 14.08855469 -12.07851562 14.98960938 -12.98828125 15.91796875 C-13.65214844 16.60503906 -14.31601563 17.29210937 -15 18 C-15 15 -15 15 -12.4453125 12.08203125 C-11.34630754 10.98435681 -10.23915907 9.89478953 -9.125 8.8125 C-8.29162109 7.97428711 -8.29162109 7.97428711 -7.44140625 7.11914062 C-3.26694139 3 -3.26694139 3 -1 3 C-0.67 2.01 -0.34 1.02 0 0 Z " fill="#383838" transform="translate(213,10)"/>
<path d="M0 0 C0.66 0.33 1.32 0.66 2 1 C1.071875 1.886875 0.14375 2.77375 -0.8125 3.6875 C-2.80874003 5.66508358 -4.13429769 7.23099203 -5.5625 9.6875 C-7.29574696 12.47576685 -9.11288064 13.51742519 -12 15 C-12 14.01 -12 13.02 -12 12 C-11.38125 11.7525 -10.7625 11.505 -10.125 11.25 C-7.90268805 10.20218211 -7.90268805 10.20218211 -7.125 8.25 C-5.41301863 4.82603725 -2.75842221 2.63849081 0 0 Z " fill="#575757" transform="translate(193,30)"/>
<path d="M0 0 C0 3.59857954 -0.95830515 5.09451118 -3 8 C-3.66 8 -4.32 8 -5 8 C-5.33 8.66 -5.66 9.32 -6 10 C-6 8.02 -6 6.04 -6 4 C-5.34 4 -4.68 4 -4 4 C-4 3.34 -4 2.68 -4 2 C-2.68 1.34 -1.36 0.68 0 0 Z " fill="#6D6D6D" transform="translate(54,56)"/>
<path d="M0 0 C-1.875 3.875 -1.875 3.875 -3 5 C-5.67058851 5.14115161 -8.32432238 5.04247107 -11 5 C-8 3 -8 3 -6 3 C-5.67 2.34 -5.34 1.68 -5 1 C-3 0 -3 0 0 0 Z " fill="#F3F3F3" transform="translate(141,132)"/>
<path d="M0 0 C0.66 0.33 1.32 0.66 2 1 C0.6875 3.9375 0.6875 3.9375 -1 7 C-1.99 7.33 -2.98 7.66 -4 8 C-4 7.01 -4 6.02 -4 5 C-3.34 5 -2.68 5 -2 5 C-1.34 3.35 -0.68 1.7 0 0 Z " fill="#6B6B6B" transform="translate(14,22)"/>
</svg>
